<svg id="Capa_1" enable-background="new 0 0 512 512" height="512" viewBox="0 0 512 512" width="512" xmlns="http://www.w3.org/2000/svg"><g><g><g><path d="m121.128 154.671h69.363v-109.535l-33.681-29.974-35.682 29.974z" fill="#faf8f8"/></g></g><g><g><path d="m60.76 45.136h60.368v109.535h-60.368z" fill="#faf8f8"/></g></g><g><g><path d="m156.81 15.162h-56.229l-39.82 29.974h60.367z" fill="#4e5a61"/></g></g><g><g><path d="m129.558 107.819c-67.411 0-122.058 54.647-122.058 122.058v239.614h305.311v-178.418c0-101.208-82.045-183.254-183.253-183.254z" fill="#b36d3c"/></g></g><g><g><path d="m129.558 107.819c-4.565 0-9.069.259-13.504.747 93.477 8.342 166.757 86.86 166.757 182.506v178.418h30v-178.417c0-101.208-82.045-183.254-183.253-183.254z" fill="#995e34"/></g></g><g><g><path d="m135.336 355.465h89.339v-141.08l-44.67-30.879-44.669 30.879z" fill="#faf8f8"/></g></g><g><g><path d="m57.582 214.385h77.754v141.08h-77.754z" fill="#faf8f8"/></g></g><g><g><path d="m180.005 183.506h-72.422l-50 30.879h77.753z" fill="#5f6c75"/></g></g><g><g><circle cx="326.617" cy="124.904" fill="#6dc17d" r="46.15"/></g></g><g><g><path d="m326.617 78.754c-3.865 0-7.617.482-11.204 1.377 20.072 5.007 34.945 23.15 34.945 44.773s-14.873 39.765-34.945 44.773c3.588.895 7.34 1.377 11.204 1.377 25.488 0 46.15-20.662 46.15-46.15-.001-25.488-20.663-46.15-46.15-46.15z" fill="#68b76a"/></g></g><g><g><circle cx="453.696" cy="124.904" fill="#6dc17d" r="46.15"/></g></g><g><g><path d="m453.696 78.754c-3.865 0-7.617.482-11.205 1.377 20.072 5.007 34.945 23.15 34.945 44.773s-14.873 39.765-34.945 44.773c3.588.895 7.34 1.377 11.205 1.377 25.488 0 46.15-20.662 46.15-46.15-.001-25.488-20.662-46.15-46.15-46.15z" fill="#68b76a"/></g></g><g><g><path d="m254.383 259.469c0 32.498-26.345 58.843-58.842 58.843h-129.198c-32.498 0-58.843 26.345-58.843 58.843v102.949c0 9.242 7.492 16.734 16.735 16.734h230.149 233.382c9.242 0 16.734-7.492 16.734-16.734v-161.793-64.399c0-29.429-23.857-53.287-53.287-53.287h-137.987c-32.498.001-58.843 26.346-58.843 58.844z" fill="#c7865b"/></g></g><g><g><path d="m451.213 200.626h-30c29.429 0 53.287 23.857 53.287 53.287v64.399 161.792c0 9.242-7.492 16.734-16.734 16.734h30c9.242 0 16.734-7.492 16.734-16.734v-161.793-64.399c0-29.429-23.857-53.286-53.287-53.286z" fill="#c27e4e"/></g></g><g><g><path d="m378.559 495.778h-89.339v-141.08l44.669-30.879 44.67 30.879z" fill="#faf8f8"/></g></g><g><g><path d="m378.559 354.698h77.754v141.08h-77.754z" fill="#faf8f8"/></g></g><g><g><path d="m426.313 354.698h30v141.08h-30z" fill="#f0e9e6"/></g></g><g><g><path d="m333.889 323.819h72.423l50 30.879h-77.753z" fill="#a2abb8"/></g></g><g><g><path d="m113.925 432.62c0 17.968-14.566 32.535-32.534 32.535s-32.535-14.566-32.535-32.535c0-17.968 14.566-83.888 32.535-83.888s32.534 65.919 32.534 83.888z" fill="#518f60"/></g></g><g><g><path d="m225.923 432.62c0 17.968-14.566 32.535-32.535 32.535-17.968 0-32.534-14.566-32.534-32.535 0-17.968 14.566-83.888 32.534-83.888 17.969 0 32.535 65.919 32.535 83.888z" fill="#518f60"/></g></g><g><g><path d="m319.387 378.047h29.004v31.751h-29.004z" fill="#80b6fc"/></g></g><g><g><path d="m348.391 495.688h-29.004v-31.035c0-8.009 6.493-14.502 14.502-14.502 8.009 0 14.502 6.493 14.502 14.502z" fill="#9d6c6c"/></g></g><g><g><path d="m166.051 234.171h29.004v31.751h-29.004z" fill="#bed9fd"/></g></g><g><g><path d="m168.114 432.62c0 17.968-14.566 32.535-32.535 32.535-17.968 0-32.535-14.566-32.535-32.535 0-17.968 14.566-83.888 32.535-83.888 17.968 0 32.535 65.919 32.535 83.888z" fill="#5ea570"/></g></g><g><path d="m504.5 339.897c4.142 0 7.5-3.358 7.5-7.5v-78.485c0-29.572-21.231-54.267-49.249-59.674v-16.464c25.283-4.318 44.594-26.375 44.594-52.87 0-29.583-24.067-53.65-53.65-53.65s-53.65 24.067-53.65 53.65c0 27.573 20.911 50.345 47.706 53.313v14.909h-112.08v-15.352c25.283-4.318 44.594-26.375 44.594-52.87 0-29.583-24.067-53.65-53.649-53.65-29.583 0-53.65 24.067-53.65 53.65 0 27.573 20.911 50.344 47.705 53.313v14.909h-7.446c-6.388 0-12.561.926-18.41 2.619-22.216-38.474-56.613-67.323-96.825-82.755v-67.854c0-2.141-.915-4.179-2.514-5.603l-33.681-29.974c-1.411-1.256-3.182-1.887-4.956-1.894-.011 0-.019-.003-.03-.003h-56.229c-1.628 0-3.211.529-4.511 1.508l-39.819 29.974c-.024.018-.035.035-.057.053-1.781 1.371-2.933 3.518-2.933 5.94v16.583c0 4.142 3.358 7.5 7.5 7.5s7.5-3.358 7.5-7.5v-9.083h45.368v48.663c-16.236 2-31.551 7.013-45.368 14.465v-24.046c0-4.142-3.358-7.5-7.5-7.5s-7.5 3.358-7.5 7.5v33.519c-32.261 23.587-53.26 61.704-53.26 104.639v250.227c0 13.363 10.872 24.235 24.234 24.235h463.531c13.363 0 24.234-10.872 24.234-24.235v-117.707c0-4.142-3.358-7.5-7.5-7.5s-7.5 3.358-7.5 7.5v117.706c0 5.092-4.143 9.235-9.234 9.235h-23.953v-134.64c0-2.66-1.388-4.99-3.476-6.322-.029-.02-.052-.039-.084-.059l-50-30.879c-1.184-.731-2.549-1.119-3.941-1.119h-72.422c-.002 0-.003 0-.004 0-1.489.001-2.979.444-4.261 1.33l-44.669 30.879c-2.026 1.401-3.235 3.707-3.235 6.169v50.92c0 4.142 3.358 7.5 7.5 7.5s7.5-3.358 7.5-7.5v-46.987l37.169-25.694 37.17 25.694v130.237c0 .159.014.314.024.47h-15.191v-24.685c0-12.132-9.87-22.002-22.002-22.002s-22.002 9.87-22.002 22.002v24.685h-15.168v-53.72c0-4.142-3.358-7.5-7.5-7.5s-7.5 3.358-7.5 7.5v53.72h-80.831v-17.397c18.501-3.522 32.534-19.809 32.534-39.32 0-9.598-3.693-31.273-9.875-50.931-8.559-27.223-18.424-40.456-30.16-40.456-9.1 0-16.973 7.841-24.069 23.972-1.796 4.084-3.404 8.375-4.837 12.631-8.266-24.612-17.738-36.603-28.904-36.603-10.347 0-19.241 10.295-27.067 31.39-7.721-20.846-16.807-31.39-27.122-31.39-11.735 0-21.601 13.233-30.16 40.456-6.181 19.659-9.875 41.334-9.875 50.931 0 19.511 14.033 35.798 32.535 39.32v17.398h-49.655c-5.092 0-9.234-4.143-9.234-9.235v-102.949c0-28.31 23.032-51.342 51.343-51.342h129.198c36.581 0 66.342-29.761 66.342-66.343 0-28.31 23.032-51.342 51.343-51.342h137.987c25.247 0 45.787 20.54 45.787 45.787v78.485c0 4.14 3.358 7.498 7.5 7.498zm-216.533-214.993c0-21.312 17.338-38.65 38.65-38.65s38.649 17.338 38.649 38.65c0 18.193-12.638 33.48-29.594 37.568v-25.673c.081-.074.166-.143.245-.221l11.676-11.676c2.929-2.929 2.929-7.677 0-10.606s-7.678-2.929-10.607 0l-1.314 1.314v-5.214c0-4.142-3.358-7.5-7.5-7.5s-7.5 3.358-7.5 7.5v25.141l-.609-.609c-2.929-2.929-7.678-2.929-10.606 0-2.929 2.929-2.929 7.678 0 10.607l10.972 10.971c.078.078.163.146.244.221v6.369c-18.5-2.869-32.706-18.902-32.706-38.192zm38.92 339.749c0-3.861 3.141-7.002 7.002-7.002s7.002 3.141 7.002 7.002v23.536h-14.004zm103.007-117.455h-48.995l-3.469-2.398-19.501-13.48h46.254zm-43.835 141.67v-126.67h62.753v127.14h-62.777c.01-.156.024-.312.024-.47zm-242.98.47v-17.398c8.329-1.586 15.748-5.759 21.392-11.65 5.764 6.025 13.245 10.1 21.417 11.655v17.394h-42.809zm39.716-117.508c6.3-14.565 10.563-15.594 10.585-15.598 1.428.134 8.342 5.732 16.078 30.656 5.538 17.841 8.965 37.629 8.965 45.731 0 11.192-7.383 20.691-17.534 23.886v-14.132c0-4.142-3.358-7.5-7.5-7.5s-7.5 3.358-7.5 7.5v14.131c-5.183-1.627-9.753-4.925-12.966-9.48 1.732-4.473 2.691-9.327 2.691-14.405 0-5.542-1.234-15.114-3.465-25.996 2.861-13.093 6.708-25.687 10.646-34.793zm-47.225-15.598c1.428.134 8.343 5.732 16.079 30.656 2.078 6.695 3.859 13.664 5.273 20.187.02.952.218 1.875.574 2.727 1.995 9.727 3.118 18.184 3.118 22.818 0 11.192-7.383 20.691-17.535 23.886v-14.132c0-4.142-3.358-7.5-7.5-7.5s-7.5 3.358-7.5 7.5v14.132c-10.151-3.194-17.535-12.693-17.535-23.886 0-8.102 3.428-27.89 8.965-45.731 7.736-24.925 14.651-30.523 16.061-30.657zm-79.214 76.388c0-8.102 3.428-27.89 8.965-45.731 7.736-24.925 14.65-30.522 16.061-30.656 2.803.264 11.536 11.346 19.381 42.457-3.331 14.048-5.218 27.073-5.218 33.931 0 6.191 1.414 12.059 3.934 17.297-2.934 3.068-6.577 5.329-10.588 6.588v-14.131c0-4.142-3.358-7.5-7.5-7.5s-7.5 3.358-7.5 7.5v14.132c-10.152-3.196-17.535-12.695-17.535-23.887zm32.535 39.324c7.34-1.397 14.122-4.826 19.605-9.874 5.381 4.953 12.118 8.448 19.584 9.869v17.398h-39.189zm-5.695-434.308 19.893-14.974h33.133l-3.718 3.123-14.107 11.851zm45.432 10.995 28.04-23.555 26.323 23.425v59.444c-17.107-4.98-35.061-7.626-53.434-7.626-.311 0-.619.01-.929.012zm4.368 158.254h-48.995l25.711-15.879h46.254zm-67.914 103.958v-88.958h62.754v88.926h-61.493c-.423 0-.84.024-1.261.032zm77.754-.032v-92.493l32.098-22.188 5.072-3.506 37.169 25.694v87.697c-6.579 3.07-13.907 4.797-21.634 4.797h-52.705zm104.047-51.342c0 13.975-5.619 26.657-14.709 35.924v-81.008c0-2.463-1.209-4.769-3.235-6.17l-44.669-30.879c-1.283-.887-2.773-1.33-4.263-1.33-.001 0-.001 0-.002 0h-72.422c-1.392 0-2.756.388-3.941 1.119l-50 30.879c-.024.015-.036.029-.059.044-2.102 1.329-3.501 3.667-3.501 6.337v98.449c-13.982 3.537-26.209 11.522-35.082 22.358v-105.315c0-63.167 51.39-114.557 114.558-114.557 62.413 0 119.67 32.871 151.285 86.279-20.244 11.372-33.96 33.044-33.96 57.87zm168.163-134.565c0-21.312 17.338-38.65 38.65-38.65 21.311 0 38.65 17.338 38.65 38.65 0 18.193-12.639 33.48-29.594 37.568v-25.673c.081-.074.166-.143.245-.221l11.676-11.676c2.929-2.929 2.929-7.678 0-10.607s-7.678-2.928-10.606 0l-1.314 1.314v-5.213c0-4.142-3.358-7.5-7.5-7.5s-7.5 3.358-7.5 7.5v25.142l-.61-.61c-2.929-2.929-7.678-2.929-10.606 0-2.929 2.929-2.929 7.678 0 10.607l10.972 10.971c.079.079.164.147.245.221v6.369c-18.502-2.868-32.708-18.902-32.708-38.192z"/><path d="m348.392 417.299c4.142 0 7.5-3.358 7.5-7.5v-31.751c0-4.142-3.358-7.5-7.5-7.5h-29.004c-4.142 0-7.5 3.358-7.5 7.5v31.751c0 4.142 3.358 7.5 7.5 7.5zm-21.505-31.752h14.004v16.751h-14.004z"/><path d="m195.056 226.671h-29.004c-4.142 0-7.5 3.358-7.5 7.5v31.751c0 4.142 3.358 7.5 7.5 7.5h29.004c4.142 0 7.5-3.358 7.5-7.5v-31.751c0-4.142-3.358-7.5-7.5-7.5zm-7.5 31.751h-14.004v-16.751h14.004z"/></g></g></svg>